<?xml version="1.0" encoding="utf-8"?>
<!-- Generator: Adobe Illustrator 13.0.0, SVG Export Plug-In . SVG Version: 6.00 Build 14948)  -->
<!DOCTYPE svg PUBLIC "-//W3C//DTD SVG 1.1//EN" "http://www.w3.org/Graphics/SVG/1.1/DTD/svg11.dtd">
<svg version="1.1" id="Layer_1" xmlns="http://www.w3.org/2000/svg" xmlns:xlink="http://www.w3.org/1999/xlink" x="0px" y="0px"
	 width="32px" height="32px" viewBox="0 0 32 32" enable-background="new 0 0 32 32" xml:space="preserve">
<path d="M22.375,21.479v-7.911v-1.064c0.865-0.113,1.535-0.855,1.535-1.751S23.24,9.114,22.375,9V8.547V6.912
	c0-3.092-2.516-5.606-5.607-5.606h-1.023c-3.092,0-5.606,2.515-5.606,5.606v1.575V9c-0.866,0.113-1.536,0.855-1.536,1.751
	s0.67,1.638,1.536,1.751v1.064v7.911c-0.635,0.644-1.08,1.396-1.268,2.221l-0.136,0.596h15.044l-0.136-0.596
	C23.453,22.875,23.01,22.122,22.375,21.479z M17.306,20.48c0,0.438-0.356,0.793-0.794,0.793H16c-0.438,0-0.793-0.355-0.793-0.793
	v-1.332c0.177,0.017,0.356,0.026,0.538,0.026h1.023c0.182,0,0.361-0.01,0.538-0.026V20.48z M21.894,11.544l-0.492-0.005v2.029
	c0,2.555-2.078,4.633-4.634,4.633h-1.023c-2.555,0-4.634-2.078-4.634-4.633V11.54l-0.742,0.006c-0.438,0-0.794-0.356-0.794-0.793
	s0.356-0.793,0.794-0.793l0.742,0.006V8.651c0.179,0.017,0.358,0.027,0.538,0.027c1.951,0,3.721-0.997,4.736-2.606
	c1.016,1.609,2.786,2.606,4.736,2.606c0.092,0,0.187-0.003,0.281-0.009v1.296l0.492-0.005c0.081,0,0.163-0.001,0.251-0.001
	c0.438,0,0.793,0.356,0.793,0.793s-0.355,0.793-0.793,0.793C22.057,11.545,21.975,11.545,21.894,11.544z M14.208,10.752
	c0-0.424-0.344-0.768-0.768-0.768s-0.768,0.344-0.768,0.768s0.344,0.768,0.768,0.768S14.208,11.176,14.208,10.752z M19.072,9.984
	c-0.424,0-0.768,0.344-0.768,0.768s0.344,0.768,0.768,0.768s0.768-0.344,0.768-0.768S19.496,9.984,19.072,9.984z M19.252,13.894
	c-0.243-0.112-0.532-0.005-0.645,0.239c-0.421,0.916-1.344,1.508-2.352,1.508c-1.007,0-1.93-0.592-2.351-1.507
	c-0.112-0.244-0.401-0.351-0.645-0.239c-0.245,0.112-0.352,0.401-0.239,0.645c0.579,1.26,1.849,2.074,3.235,2.074
	c1.387,0,2.656-0.814,3.236-2.075C19.604,14.295,19.496,14.006,19.252,13.894z M16.256,13.056c0.424,0,0.768-0.229,0.768-0.512
	s-0.344-0.512-0.768-0.512s-0.768,0.229-0.768,0.512S15.832,13.056,16.256,13.056z"/>
</svg>
