<?xml version="1.0" encoding="utf-8"?>
<!-- Generator: Adobe Illustrator 13.0.0, SVG Export Plug-In . SVG Version: 6.00 Build 14948)  -->
<!DOCTYPE svg PUBLIC "-//W3C//DTD SVG 1.1//EN" "http://www.w3.org/Graphics/SVG/1.1/DTD/svg11.dtd">
<svg version="1.1" id="Layer_1" xmlns="http://www.w3.org/2000/svg" xmlns:xlink="http://www.w3.org/1999/xlink" x="0px" y="0px"
	 width="32px" height="32px" viewBox="0 0 32 32" enable-background="new 0 0 32 32" xml:space="preserve">
<path d="M24.832,5.931c-1.27-0.346-2.797-0.956-3.051-1.336c-0.113-0.17-0.28-0.37-0.471-0.58c-0.984-1.622-2.767-2.709-4.799-2.709
	H16.04L16.01,1.3l-0.041,0.005h-0.481c-1.792,0-3.39,0.847-4.417,2.16l-0.094,0.057l-0.032,0.11
	c-0.668,0.923-1.063,2.056-1.063,3.28V9c-0.866,0.113-1.536,0.855-1.536,1.751s0.67,1.638,1.536,1.751v1.064
	c0,2.568,1.736,4.737,4.096,5.398v0.458c-2.753,0.545-4.884,2.176-5.364,4.275l-0.136,0.596h15.043l-0.135-0.596
	c-0.48-2.1-2.611-3.731-5.364-4.275v-0.458c2.36-0.661,4.096-2.83,4.096-5.398v-1.064c0.866-0.113,1.536-0.855,1.536-1.751
	S22.984,9.114,22.118,9V8.634c2.755-0.635,3.041-1.983,3.067-2.166l0.061-0.425L24.832,5.931z M17.05,20.48
	c0,0.438-0.356,0.793-0.794,0.793h-0.512c-0.438,0-0.794-0.355-0.794-0.793v-1.332c0.177,0.017,0.356,0.026,0.538,0.026h1.024
	c0.182,0,0.361-0.01,0.538-0.026V20.48z M22.682,10.752c0,0.438-0.355,0.793-0.793,0.793c-0.088,0-0.17,0-0.252-0.001l-0.491-0.005
	v2.029c0,2.555-2.078,4.633-4.634,4.633h-1.024c-2.555,0-4.633-2.078-4.633-4.633V11.54l-0.743,0.006
	c-0.438,0-0.793-0.356-0.793-0.793s0.356-0.793,0.793-0.793l0.743,0.006V8.388l0.182,0.062l1.01-1.616
	c1.009,0.653,3.664,2.119,7.144,2.119c0.226,0,0.452-0.006,0.677-0.019c0.466-0.026,0.891-0.067,1.278-0.122v1.153l0.491-0.005
	c0.082,0,0.164-0.001,0.252-0.001C22.326,9.958,22.682,10.314,22.682,10.752z M16,13.056c0.424,0,0.768-0.229,0.768-0.512
	S16.424,12.032,16,12.032s-0.768,0.229-0.768,0.512S15.576,13.056,16,13.056z M18.816,9.984c-0.425,0-0.769,0.344-0.769,0.768
	s0.344,0.768,0.769,0.768c0.424,0,0.768-0.344,0.768-0.768S19.24,9.984,18.816,9.984z M13.952,10.752
	c0-0.424-0.344-0.768-0.768-0.768s-0.768,0.344-0.768,0.768s0.344,0.768,0.768,0.768S13.952,11.176,13.952,10.752z M18.996,13.894
	c-0.243-0.112-0.533-0.005-0.645,0.239c-0.421,0.916-1.344,1.508-2.352,1.508c-1.007,0-1.93-0.592-2.351-1.507
	c-0.112-0.244-0.401-0.351-0.646-0.239c-0.244,0.112-0.351,0.401-0.239,0.645c0.579,1.26,1.849,2.074,3.235,2.074
	c1.387,0,2.656-0.814,3.235-2.075C19.348,14.295,19.24,14.006,18.996,13.894z"/>
</svg>
